<svg height="511pt" viewBox="0 1 511 511.999" width="511pt" xmlns="http://www.w3.org/2000/svg"><path d="m145.554688 35.320312c-.480469.089844-.949219.222657-1.402344.40625-.917969.367188-1.730469.925782-2.433594 1.625-1.382812 1.386719-2.183594 3.3125-2.183594 5.285157 0 .9375.207032 2.003906.570313 2.863281.582031 1.386719 1.492187 2.53125 2.753906 3.363281.75.492188 1.804687.9375 2.691406 1.105469.480469.101562.976563.148438 1.464844.148438 1.027344 0 1.921875-.171876 2.863281-.566407.890625-.375 1.734375-.960937 2.425782-1.628906 1.042968-1.011719 1.753906-2.398437 2.042968-3.820313.507813-2.476562-.25-4.945312-2.042968-6.75-1.734376-1.746093-4.351563-2.46875-6.75-2.03125zm0 0"/><path d="m173.039062 35.15625c-1.972656 0-3.898437.796875-5.296874 2.195312-1.386719 1.386719-2.183594 3.308594-2.183594 5.285157 0 .488281.050781.976562.140625 1.464843.300781 1.417969 1.015625 2.792969 2.042969 3.820313.671874.671875 1.5625 1.257813 2.433593 1.628906.449219.179688.917969.328125 1.398438.417969 1.402343.261719 2.984375.105469 4.328125-.417969.921875-.363281 1.71875-.945312 2.421875-1.628906.703125-.679687 1.253906-1.511719 1.617187-2.421875.367188-.914062.578125-1.875.578125-2.863281 0-1.964844-.796875-3.898438-2.195312-5.285157-1.394531-1.398437-3.320313-2.195312-5.285157-2.195312zm0 0"/><path d="m199.0625 35.15625c-1.976562 0-3.898438.796875-5.296875 2.195312-1.386719 1.386719-2.183594 3.308594-2.183594 5.285157 0 2.503906 1.210938 4.839843 3.320313 6.222656.410156.269531.847656.5 1.296875.6875.449219.183594.917969.332031 1.398437.421875.496094.089844.960938.148438 1.464844.148438 1.039062 0 1.898438-.175782 2.851562-.570313.976563-.402344 1.6875-.894531 2.433594-1.625 1.417969-1.375 2.195313-3.332031 2.195313-5.285156 0-1.964844-.796875-3.902344-2.195313-5.285157-1.394531-1.398437-3.320312-2.195312-5.285156-2.195312zm0 0"/><path d="m503.332031 427.707031h-21.566406v-269.128906c0-16.5-13.425781-29.929687-29.929687-29.929687h-47.570313v-95.414063c0-18.324219-14.90625-33.234375-33.230469-33.234375h-230.753906c-18.324219 0-33.234375 14.910156-33.234375 33.234375v95.414063h-47.570313c-16.5 0-29.925781 13.425781-29.925781 29.929687v269.125h-21.570312c-4.132813 0-7.480469 3.347656-7.480469 7.480469v44.871094c0 17.613281 14.328125 31.945312 31.941406 31.945312h59.886719c4.132813 0 7.480469-3.347656 7.480469-7.480469 0-4.132812-3.347656-7.480469-7.480469-7.480469h-59.882813c-9.363281 0-16.984374-7.621093-16.984374-16.984374v-37.390626h152.078124l9.761719 22.339844c1.988281 4.550782 6.480469 7.492188 11.449219 7.492188h133.816406c4.964844 0 9.460938-2.941406 11.449219-7.492188l9.761719-22.339844h152.078125v37.390626c0 9.367187-7.621094 16.984374-16.984375 16.984374h-340.410156c-4.132813 0-7.480469 3.347657-7.480469 7.480469 0 4.132813 3.347656 7.480469 7.480469 7.480469h340.410156c17.613281 0 31.941406-14.332031 31.941406-31.945312v-44.871094c0-4.128906-3.347656-7.476563-7.480469-7.476563zm-381.324219-394.472656c0-10.078125 8.199219-18.273437 18.273438-18.273437h230.753906c10.074219 0 18.269532 8.199218 18.269532 18.273437v36.96875h-267.296876zm-53.09375 146.605469v247.867187h-24.402343v-269.128906c0-8.25 6.714843-14.964844 14.964843-14.964844h47.570313v20.476563h-22.382813c-8.683593 0-15.75 7.0625-15.75 15.75zm252.035157 277.695312h-130.585938l-6.496093-14.867187h143.582031zm106.488281-29.828125h-343.5625v-247.867187c0-.4375.351562-.789063.789062-.789063h22.382813v123.019531c0 18.324219 14.910156 33.234376 33.234375 33.234376h230.753906c18.324219 0 33.230469-14.910157 33.230469-33.234376v-19.796874c0-4.132813-3.347656-7.480469-7.480469-7.480469-4.128906 0-7.480468 3.347656-7.480468 7.480469v19.796874c0 10.074219-8.195313 18.273438-18.269532 18.273438h-230.753906c-10.074219 0-18.273438-8.199219-18.273438-18.273438v-216.902343h267.296876v149.984375c0 4.132812 3.347656 7.480468 7.480468 7.480468 4.132813 0 7.480469-3.347656 7.480469-7.480468v-56.101563h22.382813c.433593 0 .789062.351563.789062.789063zm39.363281 0h-24.402343v-247.867187c0-8.6875-7.0625-15.75-15.75-15.75h-22.382813v-20.476563h47.570313c8.25 0 14.964843 6.710938 14.964843 14.964844zm0 0"/><path d="m115.90625 367.964844h102.023438c4.132812 0 7.480468-3.347656 7.480468-7.480469s-3.347656-7.480469-7.480468-7.480469h-102.023438c-4.132812 0-7.480469 3.347656-7.480469 7.480469s3.347657 7.480469 7.480469 7.480469zm0 0"/><path d="m245.507812 367.964844h42.339844c4.132813 0 7.480469-3.347656 7.480469-7.480469s-3.347656-7.480469-7.480469-7.480469h-42.339844c-4.128906 0-7.480468 3.347656-7.480468 7.480469s3.351562 7.480469 7.480468 7.480469zm0 0"/><path d="m395.40625 353.003906h-79.710938c-4.128906 0-7.480468 3.347656-7.480468 7.480469s3.351562 7.480469 7.480468 7.480469h79.710938c4.132812 0 7.480469-3.347656 7.480469-7.480469s-3.347657-7.480469-7.480469-7.480469zm0 0"/><path d="m167.140625 383.816406h-51.234375c-4.132812 0-7.480469 3.347656-7.480469 7.480469s3.347657 7.480469 7.480469 7.480469h51.234375c4.128906 0 7.480469-3.347656 7.480469-7.480469s-3.351563-7.480469-7.480469-7.480469zm0 0"/><path d="m315.695312 383.816406h-112.746093c-4.128907 0-7.480469 3.347656-7.480469 7.480469s3.351562 7.480469 7.480469 7.480469h112.746093c4.132813 0 7.480469-3.347656 7.480469-7.480469s-3.347656-7.480469-7.480469-7.480469zm0 0"/><path d="m395.40625 383.816406h-56.523438c-4.132812 0-7.480468 3.347656-7.480468 7.480469s3.347656 7.480469 7.480468 7.480469h56.523438c4.132812 0 7.480469-3.347656 7.480469-7.480469s-3.347657-7.480469-7.480469-7.480469zm0 0"/><path d="m192.945312 169.367188c0 17.816406 13.375 24.714843 22.363282 25 .082031.003906.160156.003906.242187.003906 4.019531 0 7.34375-3.191406 7.472657-7.242188.132812-4.128906-3.109376-7.582031-7.238282-7.714844-.019531 0-2.074218-.191406-3.96875-1.320312-1.679687-1-3.910156-2.992188-3.910156-8.726562v-10.558594c0-2.492188-1.238281-4.820313-3.308594-6.207032l-4.6875-3.152343 4.6875-3.148438c2.070313-1.390625 3.3125-3.71875 3.3125-6.210937v-10.558594c0-3.585938 1.316406-7.074219 4.554688-8.910156 1.210937-.683594 2.496094-1.003906 3.820312-1.136719 3.800782-.382813 6.742188-3.472656 6.742188-7.289063v-.355468c0-4.035156-3.269532-7.308594-7.308594-7.308594h-.410156c-8.988282.289062-22.359375 7.183594-22.359375 25v6.570312l-7.140625 4.800782c-3.492188 2.34375-5.261719 6.601562-4.296875 10.875.589843 2.617187 2.269531 4.863281 4.5 6.359375l6.9375 4.660156v6.570313zm0 0"/><path d="m295.027344 119.484375c1.324218.132813 2.613281.453125 3.824218 1.136719 3.234376 1.835937 4.554688 5.324218 4.554688 8.910156v10.558594c0 2.492187 1.238281 4.820312 3.308594 6.210937l4.691406 3.148438-4.691406 3.152343c-2.066406 1.386719-3.308594 3.714844-3.308594 6.207032v10.558594c0 5.734374-2.230469 7.726562-3.90625 8.726562-1.894531 1.128906-3.953125 1.320312-3.972656 1.320312-4.128906.132813-7.371094 3.585938-7.238282 7.714844.132813 4.050782 3.453126 7.242188 7.472657 7.242188.082031 0 .164062 0 .246093-.003906 8.988282-.285157 22.359376-7.183594 22.359376-25v-6.570313l6.9375-4.660156c2.230468-1.5 3.910156-3.742188 4.5-6.359375.964843-4.277344-.804688-8.535156-4.296876-10.878906l-7.140624-4.796876v-6.574218c0-17.816406-13.371094-24.710938-22.363282-24.996094h-.410156c-4.035156 0-7.308594 3.273438-7.308594 7.308594v.355468c0 3.816407 2.945313 6.90625 6.742188 7.289063zm0 0"/><path d="m168 208.058594h-20.984375c-4.132813 0-7.484375 3.347656-7.484375 7.480468 0 4.132813 3.351562 7.480469 7.484375 7.480469h20.984375c4.132812 0 7.480469-3.347656 7.480469-7.480469 0-4.132812-3.347657-7.480468-7.480469-7.480468zm0 0"/><path d="m364.300781 208.058594h-164.660156c-4.128906 0-7.480469 3.347656-7.480469 7.480468 0 4.132813 3.351563 7.480469 7.480469 7.480469h164.660156c4.128907 0 7.480469-3.347656 7.480469-7.480469 0-4.132812-3.351562-7.480468-7.480469-7.480468zm0 0"/><path d="m168 242.320312h-20.984375c-4.132813 0-7.484375 3.347657-7.484375 7.480469 0 4.132813 3.351562 7.480469 7.484375 7.480469h20.984375c4.132812 0 7.480469-3.347656 7.480469-7.480469 0-4.132812-3.347657-7.480469-7.480469-7.480469zm0 0"/><path d="m364.300781 242.320312h-164.660156c-4.128906 0-7.480469 3.347657-7.480469 7.480469 0 4.132813 3.351563 7.480469 7.480469 7.480469h164.660156c4.128907 0 7.480469-3.347656 7.480469-7.480469 0-4.132812-3.351562-7.480469-7.480469-7.480469zm0 0"/><path d="m168 276.578125h-20.984375c-4.132813 0-7.484375 3.351563-7.484375 7.484375 0 4.128906 3.351562 7.480469 7.484375 7.480469h20.984375c4.132812 0 7.480469-3.351563 7.480469-7.480469 0-4.132812-3.347657-7.484375-7.480469-7.484375zm0 0"/><path d="m364.300781 276.578125h-164.660156c-4.128906 0-7.480469 3.351563-7.480469 7.484375 0 4.128906 3.351563 7.480469 7.480469 7.480469h164.660156c4.128907 0 7.480469-3.351563 7.480469-7.480469 0-4.132812-3.351562-7.484375-7.480469-7.484375zm0 0"/><path d="m222.722656 167.863281c.582032 1.386719 1.488282 2.535157 2.75 3.363281.753906.492188 1.808594.941407 2.695313 1.105469.476562.101563.976562.148438 1.464843.148438 1.027344 0 1.921876-.171875 2.863282-.566407.890625-.375 1.734375-.957031 2.425781-1.628906 1.042969-1.011718 1.753906-2.398437 2.042969-3.816406.507812-2.480469-.25-4.949219-2.042969-6.753906-1.734375-1.742188-4.351563-2.46875-6.75-2.03125-.480469.089844-.949219.222656-1.402344.40625-.917969.367187-1.730469.925781-2.433593 1.625-1.386719 1.386718-2.183594 3.3125-2.183594 5.285156 0 .9375.207031 2.003906.570312 2.863281zm0 0"/><path d="m250.359375 170.289062c.671875.671876 1.5625 1.257813 2.433594 1.625.449219.179688.917969.328126 1.398437.417969 1.402344.265625 2.984375.109375 4.328125-.417969.921875-.363281 1.71875-.941406 2.421875-1.625.703125-.679687 1.253906-1.515624 1.617188-2.425781.367187-.914062.578125-1.875.578125-2.863281 0-1.964844-.796875-3.898438-2.195313-5.285156-1.394531-1.394532-3.320312-2.195313-5.285156-2.195313-1.972656 0-3.898438.800781-5.296875 2.195313-1.386719 1.386718-2.183594 3.3125-2.183594 5.285156 0 .492188.050781.976562.140625 1.46875.300782 1.417969 1.015625 2.789062 2.042969 3.820312zm0 0"/><path d="m277.519531 171.226562c.410157.269532.847657.496094 1.296875.6875.449219.179688.917969.328126 1.398438.417969.496094.09375.960937.148438 1.464844.148438 1.039062 0 1.898437-.175781 2.851562-.566407.976562-.402343 1.6875-.898437 2.433594-1.628906 1.417968-1.375 2.195312-3.332031 2.195312-5.285156 0-1.964844-.796875-3.898438-2.195312-5.285156-1.394532-1.398438-3.320313-2.195313-5.285156-2.195313-1.976563 0-3.898438.796875-5.296876 2.195313-1.386718 1.386718-2.183593 3.308594-2.183593 5.285156 0 2.507812 1.210937 4.839844 3.320312 6.226562zm0 0"/></svg>