<svg id="Capa_1" enable-background="new 0 0 509.42 509.42" height="512" viewBox="0 0 509.42 509.42" width="512" xmlns="http://www.w3.org/2000/svg"><g><path d="m416.471 130.45c-2.067-42.039-36.917-75.602-79.46-75.602-10.61 0-21.142 2.134-30.862 6.218-19.501-35.786-56.04-58.912-97.066-60.923-36.711-1.798-71.501 13.441-95.428 41.813-2.67 3.167-2.268 7.898.898 10.568 3.167 2.671 7.898 2.268 10.568-.898 20.885-24.766 51.212-38.07 83.227-36.501 37.975 1.862 71.546 24.482 87.612 59.033.872 1.875 2.48 3.308 4.443 3.957 1.963.65 4.109.46 5.928-.524 9.358-5.066 19.968-7.743 30.68-7.743 35.597 0 64.557 28.96 64.557 64.557 0 .819-.023 1.706-.074 2.879-.089 2.044.66 4.035 2.075 5.513s3.372 2.313 5.417 2.313c.05 0 .112-.001.173-.002 35.555.049 64.465 28.991 64.465 64.557 0 .755-.013 1.507-.039 2.258-.49 14.291-6.573 27.645-17.126 37.604-10.532 9.938-24.318 15.411-38.818 15.411h-24.028v-7.771c0-6.417-5.22-11.637-11.637-11.637h-20.915v-20.251c0-11.871-9.658-21.529-21.53-21.529h-79.066c-.941 0-1.707-.766-1.707-1.707v-11.894c0-14.157-11.518-25.674-25.674-25.674h-66.956c-14.157 0-25.674 11.517-25.674 25.674v55.381h-13.012c-6.417 0-11.637 5.22-11.637 11.637v7.771h-24.028c-14.5 0-28.286-5.473-38.818-15.411-10.553-9.958-16.636-23.313-17.126-37.605-.026-.749-.039-1.501-.039-2.257 0-33.868 26.45-62.153 60.216-64.393 2.143-.142 4.122-1.196 5.436-2.895s1.837-3.879 1.436-5.989c-1.235-6.497-1.843-13.147-1.807-19.765.077-14.26 3.08-28.061 8.925-41.019 1.703-3.776.023-8.217-3.753-9.92-3.775-1.703-8.217-.023-9.921 3.753-6.713 14.884-10.163 30.733-10.252 47.105-.027 4.91.256 9.835.843 14.719-37.674 6.427-66.123 39.414-66.123 78.404 0 .928.016 1.853.048 2.772.627 18.265 8.377 35.312 21.823 47.999 13.327 12.576 30.769 19.501 49.112 19.501h24.028v97.537c0 .478.049.944.135 1.397-.085.453-.135.919-.135 1.397v30.43c0 4.142 3.358 7.5 7.5 7.5s7.5-3.358 7.5-7.5v-25.725h247.809v109.447h-247.808v-53.721c0-4.142-3.358-7.5-7.5-7.5s-7.5 3.358-7.5 7.5v57.084c0 6.417 5.22 11.637 11.637 11.637h254.534c6.417 0 11.637-5.22 11.637-11.637v-118.304c0-.341-.031-.673-.075-1.002.044-.329.075-.661.075-1.002v-97.537h24.028c18.343 0 35.785-6.926 49.112-19.501 13.446-12.687 21.196-29.734 21.823-47.998.032-.921.048-1.845.048-2.774 0-41.372-31.743-75.47-72.154-79.215zm-261.017 59.698c0-5.886 4.788-10.674 10.674-10.674h66.956c5.886 0 10.674 4.788 10.674 10.674v11.894c0 9.212 7.495 16.707 16.707 16.707h79.066c3.601 0 6.53 2.929 6.53 6.529v20.251h-190.607zm-24.648 70.381h247.809v109.445h-247.809z"/><path d="m261.588 307.752h-18.048c-4.142 0-7.5 3.358-7.5 7.5s3.358 7.5 7.5 7.5h18.048c4.142 0 7.5-3.358 7.5-7.5 0-4.143-3.358-7.5-7.5-7.5z"/><path d="m261.588 447.197c4.142 0 7.5-3.358 7.5-7.5s-3.358-7.5-7.5-7.5h-18.048c-4.142 0-7.5 3.358-7.5 7.5s3.358 7.5 7.5 7.5z"/></g></svg>