<?xml version="1.0"?>
<svg xmlns="http://www.w3.org/2000/svg" viewBox="0 0 64 64" width="512" height="512"><g id="Smartphone-2" data-name="Smartphone"><path d="M10.041,24.2a8.994,8.994,0,0,1,17.918,0,3,3,0,1,0,2-.026A10.992,10.992,0,0,0,25.305,16h.879a3,3,0,1,0,0-2H11.816a3,3,0,1,0,0,2H12.7a10.992,10.992,0,0,0-4.653,8.171,3,3,0,1,0,2,.026ZM29,28a1,1,0,1,1,1-1A1,1,0,0,1,29,28Zm0-14a1,1,0,1,1-1,1A1,1,0,0,1,29,14ZM9,16a1,1,0,1,1,1-1A1,1,0,0,1,9,16ZM9,28a1,1,0,1,1,1-1A1,1,0,0,1,9,28Z"/><path d="M25,41a2.991,2.991,0,0,0-1.234-2.413l2.192-7.3A1,1,0,0,0,25.8,30.4l-6-8a1.036,1.036,0,0,0-1.6,0l-6,8a1,1,0,0,0-.158.888l2.192,7.3A2.992,2.992,0,0,0,16,44h6A3,3,0,0,0,25,41ZM20,31a1,1,0,1,1-1-1A1,1,0,0,1,20,31Zm-2-5v2.184a3,3,0,1,0,2,0V26l3.9,5.2L21.853,38H16.147L14.1,31.2ZM15,41a1,1,0,0,1,1-1h6a1,1,0,0,1,0,2H16A1,1,0,0,1,15,41Z"/><path d="M61,28H57.246c-.055-.139-.112-.277-.174-.416l2.656-2.655a1,1,0,0,0,0-1.414l-4.243-4.243a1.029,1.029,0,0,0-1.414,0l-2.655,2.656c-.139-.061-.277-.119-.416-.175V18a1,1,0,0,0-1-1H44a1,1,0,0,0-1,1v3.753c-.139.056-.277.114-.416.175l-2.655-2.656a1.029,1.029,0,0,0-1.414,0L36,21.787V7a5.006,5.006,0,0,0-5-5H7A5.006,5.006,0,0,0,2,7V57a5.006,5.006,0,0,0,5,5H31a5.006,5.006,0,0,0,5-5V48.649l6.591-6.59c.136.06.271.133.409.188V46a1,1,0,0,0,1,1h6a1,1,0,0,0,1-1V42.247c.139-.056.277-.114.416-.175l2.655,2.656a1.029,1.029,0,0,0,1.414,0l4.243-4.243a1,1,0,0,0,0-1.414l-2.656-2.655c.062-.139.119-.277.174-.416H61a1,1,0,0,0,1-1V29A1,1,0,0,0,61,28ZM34,57a3,3,0,0,1-3,3H7a3,3,0,0,1-3-3V7A3,3,0,0,1,7,4H31a3,3,0,0,1,3,3V24h.023a.985.985,0,0,0,.249.929l2.656,2.655c-.062.139-.119.277-.174.416H33a1,1,0,0,0-1,1v6a1,1,0,0,0,1,1h3.754c.053.134.124.266.183.4L24.389,48.948a.975.975,0,0,0-.2.293l-3.537,7.778a1,1,0,0,0,1.325,1.324l7.778-3.535a1.009,1.009,0,0,0,.293-.2L34,50.649Zm7-25a6,6,0,1,1,6,6c-.11,0-.214-.022-.323-.027l2.47-2.471a4,4,0,0,0-5.657-5.657L41.026,32.31C41.021,32.206,41,32.1,41,32Zm3.9-.741a2,2,0,0,1,2.829,2.829L28.759,53.062l-5.186,2.357,2.358-5.185ZM60,34H56.541a1,1,0,0,0-.954.7,9.078,9.078,0,0,1-.61,1.458,1,1,0,0,0,.179,1.17l2.45,2.45-2.828,2.828-2.45-2.45a1,1,0,0,0-1.17-.179,8.953,8.953,0,0,1-1.459.61,1,1,0,0,0-.7.954V45H45V41.541a1,1,0,0,0-.7-.954c-.058-.018-.117-.044-.175-.064l.8-.8A7.882,7.882,0,0,0,47,40a7.983,7.983,0,1,0-7.732-5.932l-.8.8c-.018-.054-.043-.109-.06-.163a1,1,0,0,0-.954-.7H34V30h3.459a1,1,0,0,0,.954-.7,9.078,9.078,0,0,1,.61-1.458,1,1,0,0,0-.179-1.17l-2.45-2.45,2.828-2.828,2.45,2.45a1,1,0,0,0,1.17.179,8.953,8.953,0,0,1,1.459-.61,1,1,0,0,0,.7-.954V19h4v3.459a1,1,0,0,0,.7.954,8.953,8.953,0,0,1,1.459.61,1,1,0,0,0,1.17-.179l2.45-2.45,2.828,2.828-2.45,2.45a1,1,0,0,0-.179,1.17,9.078,9.078,0,0,1,.61,1.458,1,1,0,0,0,.954.7H60Z"/></g></svg>
