<svg height="480pt" viewBox="0 0 480 480" width="480pt" xmlns="http://www.w3.org/2000/svg"><path d="m288 176h16v16h-16zm0 0"/><path d="m320 176h32v16h-32zm0 0"/><path d="m456 144h-88v-104c-.027344-22.082031-17.917969-39.9726562-40-40h-288c-22.082031.0273438-39.9726562 17.917969-40 40v400c.0273438 22.082031 17.917969 39.972656 40 40h416c13.253906 0 24-10.746094 24-24v-288c0-13.253906-10.746094-24-24-24zm-184 80h192v176h-192zm192-56v40h-192v-40c0-4.417969 3.582031-8 8-8h176c4.417969 0 8 3.582031 8 8zm-184-24c-13.253906 0-24 10.746094-24 24v232h-240v-320h336v64zm-264-104c0-13.253906 10.746094-24 24-24h288c13.253906 0 24 10.746094 24 24v24h-336zm0 400v-24h240v40c.027344 2.730469.523438 5.4375 1.472656 8h-217.472656c-13.253906 0-24-10.746094-24-24zm448 16c0 4.417969-3.582031 8-8 8h-176c-4.417969 0-8-3.582031-8-8v-40h192zm0 0"/><path d="m360 432h16v16h-16zm0 0"/><path d="m176 432h16v16h-16zm0 0"/><path d="m168 32h32v16h-32zm0 0"/><path d="m423.863281 296.121094c-4.554687-5.164063-11.105469-8.121094-17.992187-8.121094h-5.871094v-8c0-13.253906-10.746094-24-24-24s-24 10.746094-24 24v8c-1.585938.03125-3.160156.300781-4.664062.800781-1.039063-.507812-2.179688-.78125-3.335938-.800781h-32c-4.417969 0-8 3.582031-8 8v64c0 4.417969 3.582031 8 8 8h96.9375c8.0625-.007812 14.863281-6.011719 15.863281-14.015625l4.871094-39.007813c.855469-6.828124-1.257813-13.695312-5.808594-18.855468zm-103.863281 7.878906h16v48h-16zm88.9375 48h-56.9375v-48h8c4.417969 0 8-3.582031 8-8v-16c0-4.417969 3.582031-8 8-8s8 3.582031 8 8v16c0 4.417969 3.582031 8 8 8h13.871094c2.296875 0 4.480468.984375 6.003906 2.703125 1.519531 1.71875 2.226562 4.011719 1.941406 6.289063zm0 0"/><path d="m80 216h96.9375c8.0625-.007812 14.863281-6.011719 15.863281-14.015625l4.871094-39.007813c.851563-6.828124-1.265625-13.695312-5.816406-18.855468-4.554688-5.160156-11.101563-8.117188-17.984375-8.121094h-5.871094v-8c0-13.253906-10.746094-24-24-24s-24 10.746094-24 24v8c-1.585938.03125-3.160156.300781-4.664062.800781-1.039063-.507812-2.179688-.78125-3.335938-.800781h-32c-4.417969 0-8 3.582031-8 8v64c0 4.417969 3.582031 8 8 8zm48-64c4.417969 0 8-3.582031 8-8v-16c0-4.417969 3.582031-8 8-8s8 3.582031 8 8v16c0 4.417969 3.582031 8 8 8h13.871094c2.296875 0 4.480468.984375 6.003906 2.703125 1.519531 1.71875 2.226562 4.011719 1.941406 6.289063l-4.878906 39.007812h-56.9375v-48zm-40 0h16v48h-16zm0 0"/><path d="m192 240h-112c-8.835938 0-16 7.164062-16 16v64c0 8.835938 7.164062 16 16 16h35.054688l13.785156 27.574219c1.351562 2.71875 4.125 4.433593 7.160156 4.433593s5.808594-1.714843 7.160156-4.433593l13.785156-27.574219h35.054688c8.835938 0 16-7.164062 16-16v-64c0-8.835938-7.164062-16-16-16zm0 80h-40c-3.03125 0-5.804688 1.710938-7.160156 4.425781l-8.839844 17.6875-8.800781-17.6875c-1.359375-2.726562-4.152344-4.441406-7.199219-4.425781h-40v-64h112zm0 0"/><path d="m96 264h80v16h-80zm0 0"/><path d="m96 296h80v16h-80zm0 0"/></svg>