<?xml version="1.0"?>
<svg xmlns="http://www.w3.org/2000/svg" viewBox="0 0 512 512" width="512" height="512"><g id="_16-stopwatch" data-name="16-stopwatch"><g id="linear_color" data-name="linear color"><path d="M253.441,425.7A100.722,100.722,0,0,1,232,428a99.453,99.453,0,0,1-57.878-18.494l66.757-73.434A12,12,0,0,0,244,328V228.726a100.2,100.2,0,0,1,70.083,42.139,12,12,0,0,0,19.684-13.73A124.008,124.008,0,0,0,108,328c-.007,68.487,55.826,124.037,124,124a124.724,124.724,0,0,0,26.559-2.854,12,12,0,1,0-5.118-23.447ZM132,328a100.142,100.142,0,0,1,88-99.277V323.36l-63.63,69.994A99.578,99.578,0,0,1,132,328Z"/><path d="M390.436,344.631a48.933,48.933,0,1,0,34.6,14.332A48.613,48.613,0,0,0,390.436,344.631ZM408.067,411.2a24.934,24.934,0,1,1,0-35.261h0a24.933,24.933,0,0,1,0,35.261Z"/><path d="M494.346,361.279,481.592,359.7l-2.755-6.649,7.9-10.134a12,12,0,0,0-.978-15.864l-28.815-28.817a12,12,0,0,0-15.864-.977l-10.135,7.9-6.649-2.754-1.578-12.754a12,12,0,0,0-11.909-10.526h-5.545A180.045,180.045,0,0,0,244,148.408V132h20a12,12,0,0,0,12-12V108h3.408a36.007,36.007,0,0,0,27.317-59.45C288.3,27.014,259,4,232,4s-56.3,23.014-74.725,44.55A36.007,36.007,0,0,0,184.592,108H188v12a12,12,0,0,0,12,12h20v16.41a178.876,178.876,0,0,0-88.375,30.245l-19.14-19.14a12,12,0,0,0-16.97,16.97l17.009,17.01A179.6,179.6,0,0,0,52,328c0,99.252,80.748,180,180,180a179.5,179.5,0,0,0,88.038-23l3.887,3.888a12,12,0,0,0,15.865.977l10.134-7.9,6.649,2.754,1.578,12.754A12,12,0,0,0,370.06,508h40.752a12,12,0,0,0,11.909-10.526L424.3,484.72l6.649-2.754,10.135,7.9a12,12,0,0,0,15.864-.977l28.815-28.817a12,12,0,0,0,.978-15.864l-7.9-10.134,2.754-6.649,12.755-1.578a12,12,0,0,0,10.526-11.91V373.188A12,12,0,0,0,494.346,361.279ZM184.592,84a12.007,12.007,0,0,1-9.079-19.849C193.72,42.866,216.949,28,232,28s38.28,14.866,56.487,36.151A12.007,12.007,0,0,1,279.408,84H276V72a12,12,0,0,0-12-12H200a12,12,0,0,0-12,12V84ZM212,84h40v24H212Zm20,400c-86.019,0-156-69.981-156-156s69.981-156,156-156c67.3,0,127.346,44.239,148.172,107.128H370.06a12,12,0,0,0-11.909,10.526l-1.578,12.754-6.649,2.754-10.134-7.9a12,12,0,0,0-15.865.977l-28.816,28.817a12,12,0,0,0-.977,15.864l7.9,10.134L299.28,359.7l-12.754,1.578A12,12,0,0,0,276,373.188v40.751a12,12,0,0,0,10.526,11.91l12.754,1.578,2.754,6.649-7.9,10.134a12,12,0,0,0,.977,15.864l7.2,7.2A155.651,155.651,0,0,1,232,484Zm248.872-80.667-9.165,1.134a12,12,0,0,0-9.613,7.317l-8.105,19.567a12,12,0,0,0,1.624,11.97l5.679,7.283L447.476,464.42l-7.283-5.679a12,12,0,0,0-11.971-1.624l-19.566,8.1a12,12,0,0,0-7.317,9.613L400.205,484H380.667l-1.134-9.165a12,12,0,0,0-7.317-9.613l-19.566-8.1a12.007,12.007,0,0,0-11.971,1.624L333.4,464.42,319.58,450.6l5.679-7.283a12,12,0,0,0,1.623-11.97l-8.1-19.567a12,12,0,0,0-9.613-7.317L300,403.333V383.8l9.165-1.134a12,12,0,0,0,9.613-7.317l8.1-19.567a12,12,0,0,0-1.623-11.97l-5.679-7.283L333.4,322.708l7.283,5.679a12,12,0,0,0,11.971,1.624l19.566-8.105a12,12,0,0,0,7.317-9.613l1.134-9.165h19.538l1.134,9.165a12,12,0,0,0,7.317,9.613l19.566,8.105a12,12,0,0,0,11.971-1.624l7.283-5.679,13.816,13.816-5.679,7.283a12,12,0,0,0-1.624,11.97l8.105,19.567a12,12,0,0,0,9.613,7.317l9.165,1.134Z"/></g></g></svg>
