<svg height="512" viewBox="0 0 64 64" width="512" xmlns="http://www.w3.org/2000/svg"><g id="Vdo_edit-5" data-name="Vdo edit"><path d="m32 45h-28a1 1 0 0 1 -1-1v-32a1 1 0 0 1 1-1h44a1 1 0 0 1 1 1v23a1 1 0 0 0 2 0v-23a3 3 0 0 0 -3-3h-44a3 3 0 0 0 -3 3v32a3 3 0 0 0 3 3h28a1 1 0 0 0 0-2z"/><path d="m23.509 32.871a1 1 0 0 0 1.009-.015l6.621-4a1 1 0 0 0 0-1.712l-6.621-4a1 1 0 0 0 -1.518.856v8a1 1 0 0 0 .509.871zm1.491-7.099 3.687 2.228-3.687 2.228z"/><path d="m26 37a9 9 0 1 0 -9-9 9.01 9.01 0 0 0 9 9zm0-16a7 7 0 1 1 -7 7 7.008 7.008 0 0 1 7-7z"/><path d="m6 41a1 1 0 0 0 0 2h8a1 1 0 0 0 0-2z"/><path d="m17 41a1 1 0 0 0 0 2h1a1 1 0 0 0 0-2z"/><path d="m50 39v1h-14a1 1 0 0 0 0 2h14v1a1 1 0 0 0 1 1h3a1 1 0 0 0 1-1v-1h7a1 1 0 0 0 0-2h-7v-1a1 1 0 0 0 -1-1h-3a1 1 0 0 0 -1 1zm2 1h1v2h-1z"/><path d="m62 50h-7v-1a1 1 0 0 0 -1-1h-3a1 1 0 0 0 -1 1v1h-14a1 1 0 0 0 0 2h14v1a1 1 0 0 0 1 1h3a1 1 0 0 0 1-1v-1h7a1 1 0 0 0 0-2zm-9 2h-1v-2h1z"/><path d="m44 49h3a1 1 0 0 0 1-1v-1h9a1 1 0 0 0 0-2h-9v-1a1 1 0 0 0 -1-1h-3a1 1 0 0 0 -1 1v1h-7a1 1 0 0 0 0 2h7v1a1 1 0 0 0 1 1zm1-4h1v2h-1z"/><path d="m62 45h-2a1 1 0 0 0 0 2h2a1 1 0 0 0 0-2z"/></g></svg>